PathFileType	4	(X/Y/Z)	S01_0011_Gait_markers.trc
DataRate	CameraRate	NumFrames	NumMarkers	Units	OrigDataRate	OrigDataStartFrame	OrigNumFrames
250.000000	250.000000	4	54	mm	250.000000	89	359
Frame#	Time	HEAD_ANT			R_HEAD			L_HEAD			C7			R_BACK			L_BACK			STERNUM			R_ACROMION			R_HUM_PROX			R_HUM_ANT			R_HUM_POST			R_ELBOW_LAT			R_ELBOW_MED			R_FOREARM			R_WIRST_LAT			R_WRITS_MED			R_HAND			L_ACROMION			L_HUM_PROX			L_HUM_ANT			L_HUM_POST			L_ELBOW_LAT			L_ELBOW_MED			L_FOREARM			L_WRIST_LAT			L_WIRST_MED			L_HAND			R_ILIAC			SACRUM			L_ILIAC			R_GTROCH			R_THIGH__1			R_THIGH_2			R_THIGH_3			R_THIGH_4			R_SHANK_1			R_SHANK_2			R_SHANK_3			R_SHANK_4			R_HEEL			R_FOOT_LAT			R_FOOT_MED			L_GTROCH			L_THIGH_1			L_THIGH_2			L_THIGH_3			L_THIGH_4			L_SHANK_1			L_SHANK_2			L_SHANK_3			L_SHANK_4			L_HEEL			L_FOOT_LAT			L_FOOT_MED			
		X1	Y1	Z1	X2	Y2	Z2	X3	Y3	Z3	X4	Y4	Z4	X5	Y5	Z5	X6	Y6	Z6	X7	Y7	Z7	X8	Y8	Z8	X9	Y9	Z9	X10	Y10	Z10	X11	Y11	Z11	X12	Y12	Z12	X13	Y13	Z13	X14	Y14	Z14	X15	Y15	Z15	X16	Y16	Z16	X17	Y17	Z17	X18	Y18	Z18	X19	Y19	Z19	X20	Y20	Z20	X21	Y21	Z21	X22	Y22	Z22	X23	Y23	Z23	X24	Y24	Z24	X25	Y25	Z25	X26	Y26	Z26	X27	Y27	Z27	X28	Y28	Z28	X29	Y29	Z29	X30	Y30	Z30	X31	Y31	Z31	X32	Y32	Z32	X33	Y33	Z33	X34	Y34	Z34	X35	Y35	Z35	X36	Y36	Z36	X37	Y37	Z37	X38	Y38	Z38	X39	Y39	Z39	X40	Y40	Z40	X41	Y41	Z41	X42	Y42	Z42	X43	Y43	Z43	X44	Y44	Z44	X45	Y45	Z45	X46	Y46	Z46	X47	Y47	Z47	X48	Y48	Z48	X49	Y49	Z49	X50	Y50	Z50	X51	Y51	Z51	X52	Y52	Z52	X53	Y53	Z53	X54	Y54	Z54	

90	0.356	585.8233642578125	1742.0849609375	-263.026458740234	528.8106689453125	1685.27197265625	-189.3181152343746	527.0000610351562	1699.657958984375	-336.3845214843746	392.5860900878906	1520.124877929688	-276.9796447753903	324.7998352050781	1318.430419921875	-218.6682281494138	322.1324462890625	1327.041137695312	-354.3481445312497	573.1495971679688	1361.68994140625	-284.2977905273435	468.5181579589844	1467.92138671875	-108.1775588989255	430.6991577148438	1305.434814453125	-24.05758285522432	491.3219909667969	1219.4072265625	-24.58500099182102	370.4703979492188	1222.260986328125	-12.11142826080295	415.6816711425781	1115.796630859375	-10.61357498168921	387.7717895507812	1114.8544921875	-90.25556182861304	520.7196044921875	934.3921508789062	-20.7845172882078	558.2894897460938	871.9137573242188	-65.31664276123027	494.1524047851562	844.98486328125	-23.45644187927227	566.548095703125	780.1599731445312	-18.62147521972639	469.1163635253906	1483.96435546875	-446.8781433105465	446.5490112304688	1319.608642578125	-546.3004760742184	506.4403686523438	1237.36767578125	-546.2843627929685	386.5146179199219	1244.271728515625	-574.6330566406248	442.1421203613281	1137.969604492188	-582.7179565429685	387.7214965820312	1132.976318359375	-527.1838378906248	535.177490234375	956.0174560546876	-575.8195800781248	562.767333984375	889.5869140625001	-527.3038940429685	516.6648559570312	876.4637451171876	-592.4259033203123	584.3950805664062	810.8345336914064	-579.511535644531	484.6509094238281	1074.806396484375	-121.1899642944334	348.5953674316406	1044.77392578125	-284.2519226074216	459.1409606933594	1064.350952148438	-464.8758544921873	445.410888671875	928.4039916992188	-105.0796661376951	509.3707580566406	647.7319946289062	-141.9457397460936	564.2062377929688	669.9716186523438	-142.542510986328	574.8265991210938	570.7626342773438	-185.0472564697264	511.5374755859375	568.532470703125	-167.6029663085936	501.8695373535156	341.4765930175782	-173.6299591064452	554.4984741210938	321.0506286621094	-195.5134277343749	546.7055053710938	237.8470916748047	-217.0053710937499	485.2276000976562	244.1946716308594	-198.9124145507812	430.1959533691406	42.45494842529303	-288.7454223632812	592.8609619140625	19.74897384643559	-204.878662109375	649.6277465820312	29.77489089965827	-307.3548583984375	426.4261474609375	946.7373657226564	-468.1246032714841	555.5991821289062	666.3298339843751	-477.7498779296873	498.79296875	681.7036743164064	-485.062286376953	497.2685852050781	576.5951538085939	-466.1350708007811	561.0103149414062	584.6940917968751	-465.2039184570311	388.0966491699219	367.9786682128907	-457.8905334472656	336.6014404296875	398.9815979003907	-456.9448242187499	269.0053405761719	346.2792053222657	-438.0593566894531	314.2969970703125	300.0293579101564	-434.0588989257812	111.8474807739258	269.2745666503907	-358.6174011230468	165.5454559326172	103.611541748047	-430.1433410644531	204.2367248535156	84.0495910644532	-338.5054931640625	
91	0.36	591.7107543945312	1742.79052734375	-262.7406616210934	534.4144897460938	1685.985473632812	-189.2937469482418	532.4608154296875	1700.518432617188	-336.3171997070309	398.085693359375	1520.923461914062	-276.8450317382809	330.4334411621094	1319.1572265625	-218.2492370605466	327.6015930175781	1327.609252929688	-354.2015380859372	578.7459716796875	1362.628784179688	-284.6584167480466	474.1393737792969	1468.955810546875	-108.0993423461911	436.6387023925781	1306.327758789062	-23.91865921020479	497.5156860351562	1220.455078125	-24.5934982299802	376.5946960449219	1223.040649414062	-11.96908187866184	422.6041259765625	1116.48974609375	-10.65142917633032	394.2767944335938	1115.590576171875	-90.13876342773413	528.5103149414062	935.9913330078125	-21.54331398010233	566.4673461914062	873.9634399414062	-66.15114593505839	502.5770874023438	846.2972412109375	-24.16898918151837	575.6109619140625	782.1175537109375	-19.54389762878401	474.297119140625	1484.931030273438	-446.7385253906247	451.346435546875	1320.493530273438	-546.4465942382809	510.9432067871094	1238.24072265625	-546.9605712890623	390.8755798339844	1245.267333984375	-574.4383544921873	446.7735290527344	1139.019287109375	-582.6632080078123	392.0970764160156	1134.108276367188	-527.316955566406	539.0219116210938	956.7870483398439	-576.1126708984373	566.20751953125	890.0512695312501	-527.3219604492185	520.5390014648438	877.3850097656251	-592.8076171874998	587.6094360351562	811.1519165039064	-579.5631713867185	490.7385559082031	1076.14111328125	-121.0386276245115	354.2321472167969	1045.711547851562	-283.825988769531	464.8057556152344	1065.660278320312	-464.4953918457029	448.9776916503906	928.3678588867188	-104.6651306152342	511.6347961425781	648.1295776367188	-141.8185424804686	566.2499389648438	669.1865234375	-142.7335205078124	576.6254272460938	570.5979614257812	-184.4345703124999	513.2225341796875	568.968017578125	-167.3167572021483	502.4652404785156	341.6318054199219	-173.4908294677734	554.9066772460938	321.1785583496094	-195.6183319091796	547.1400146484375	237.9325256347657	-216.8469848632812	485.6264038085938	244.4251251220704	-198.8538208007812	430.2579040527344	42.69843292236335	-289.1306457519531	592.8605346679688	19.69928932189946	-204.8013458251953	649.72998046875	29.85549926757819	-307.3297424316406	431.9633483886719	947.9642944335939	-468.0020446777341	564.38134765625	668.2521362304689	-477.6210021972655	507.2818603515625	683.0027465820314	-485.1192932128905	506.6629638671875	577.8799438476564	-466.2501220703124	570.3897705078125	586.7766113281251	-465.0323486328124	399.2720947265625	368.2781982421876	-457.9946594238281	347.4224548339844	398.7665405273439	-457.3492126464843	280.4771118164062	345.6714172363282	-437.9722900390624	325.8031921386719	300.1765441894532	-434.3612670898437	123.4857864379883	266.8822021484376	-358.6363830566406	180.3706817626953	102.6372451782228	-431.2211608886719	219.7662811279297	83.08034515380866	-339.7006530761719	
92	0.364	597.0956420898438	1743.449340820312	-263.0412597656246	539.916259765625	1686.690307617188	-189.4025268554684	537.9232788085938	1701.282470703125	-336.3308410644527	403.4822998046875	1521.763916015625	-276.9257507324215	335.9922485351562	1320.065551757812	-217.9247436523435	333.189697265625	1328.297607421875	-353.7451171874997	584.197509765625	1363.59228515625	-284.9884338378903	479.8246459960938	1469.896850585938	-108.3196258544919	442.6869201660156	1307.1494140625	-23.83446502685518	503.663818359375	1221.39208984375	-24.74853134155246	382.7898559570312	1223.730102539062	-11.76663970947238	428.7420654296875	1117.406494140625	-10.45164108276342	400.5437316894531	1116.378051757812	-89.98437499999976	536.2555541992188	937.4415893554688	-22.2112693786619	574.5665893554688	875.760986328125	-67.02590179443339	511.148681640625	847.7455444335938	-24.98666572570782	584.5126342773438	784.0596923828125	-20.54104614257795	479.5414733886719	1485.951782226562	-446.733734130859	456.0292663574219	1321.451538085938	-546.5855712890622	515.7532348632812	1239.119384765625	-547.419738769531	395.2469787597656	1246.423095703125	-574.2142944335935	450.760986328125	1139.968383789063	-583.0101318359373	396.4496459960938	1135.26171875	-527.2367553710935	543.0263671875	957.7145996093751	-576.3717651367185	569.5218505859375	890.5751953125001	-527.835021972656	524.3961791992188	878.4356079101564	-593.5146484374998	590.9514770507812	811.6541137695314	-579.667053222656	496.8173217773438	1077.444580078125	-120.9273910522459	359.5906372070312	1046.684204101562	-283.6535949707029	470.8465270996094	1067.093017578125	-464.0708923339841	454.1842956542969	929.0313720703125	-104.544250488281	513.87744140625	648.404296875	-141.7421417236327	569.0634765625	669.1322021484375	-141.4021148681639	578.3195190429688	570.2190551757812	-183.864044189453	514.6065063476562	569.3862915039062	-167.2355651855468	502.878662109375	341.7953796386719	-173.3640136718749	555.3777465820312	321.2980957031251	-195.299591064453	547.4373779296875	238.0050811767579	-216.6341705322265	485.8587341308594	244.6962127685547	-198.9016418457031	430.3231506347656	42.88614654541022	-289.5068969726562	592.8651123046875	19.64752769470219	-204.7685852050781	649.79248046875	29.82756614685065	-307.2818908691406	437.6932983398438	949.2647705078126	-467.8770751953123	573.1309814453125	669.9981079101564	-476.9889221191405	516.0018310546875	684.2434082031251	-485.4508972167967	516.215576171875	579.1730346679689	-466.6243286132811	579.913330078125	588.8294677734376	-464.9830017089843	410.3594360351562	368.820037841797	-457.7403564453124	358.3405456542969	398.8710021972657	-457.0913696289061	291.724609375	344.9163818359376	-437.9290161132812	337.6529541015625	299.8251953125001	-434.4321289062499	135.1804046630859	264.1850280761719	-358.3559265136718	195.4488677978516	101.5690307617188	-432.2933349609375	235.0484619140625	82.13544464111335	-340.8489074707031	
93	0.368	602.9802856445312	1744.23046875	-262.8034973144527	545.5606079101562	1687.573608398438	-189.3617248535153	543.5264282226562	1702.041381835938	-336.3336486816402	409.1260375976562	1522.410278320312	-276.568450927734	341.703369140625	1320.930908203125	-217.7725830078122	338.7578430175781	1329.01904296875	-353.3714599609372	589.6340942382812	1364.429565429688	-284.9405822753903	485.4688110351562	1470.7412109375	-108.2892990112301	448.5682373046875	1307.972778320312	-23.60058784484834	509.80712890625	1222.261840820312	-24.94661140441868	388.9069519042969	1224.287353515625	-11.67174434661838	434.7516479492188	1118.316040039062	-10.49632740020727	406.8365173339844	1117.388793945312	-90.32655334472632	544.03369140625	939.0639038085938	-22.87368965148905	582.6649169921875	877.6991577148438	-68.21408843994121	519.5114135742188	849.0852661132812	-25.74223136901837	593.5108642578125	785.9642944335938	-21.72384262084944	484.54541015625	1486.702514648438	-446.7303771972653	460.5884399414062	1322.347045898438	-546.6578979492184	520.0881958007812	1239.840209960938	-547.8790893554685	398.9151306152344	1247.620483398438	-573.864807128906	455.1389465332031	1140.788696289063	-583.1042480468748	400.8406372070312	1136.179565429688	-527.3261718749998	546.973876953125	958.5126953125001	-576.590881347656	572.978271484375	891.2694091796876	-528.021057128906	528.281982421875	879.3611450195314	-593.9215698242185	594.2693481445312	812.0456542968751	-579.658264160156	502.7247924804688	1078.547973632812	-121.1120300292966	365.1050109863281	1047.563110351562	-283.3030090332029	476.7187805175781	1068.192016601562	-463.7285461425779	459.5635986328125	929.6512451171875	-104.3488006591795	516.149658203125	648.7192993164062	-141.5957946777342	571.2330322265625	668.8661499023438	-141.8072357177733	579.8427734375	569.7775268554688	-183.2741851806639	516.1845703125	569.7485961914062	-167.0052032470702	503.163330078125	342.0484924316407	-173.3295288085937	555.7037963867188	321.3512878417969	-194.9366302490234	547.6367797851562	238.0987243652344	-216.3574066162109	485.9778137207031	244.9840850830079	-198.9535675048828	430.4027404785156	43.10671234130866	-289.9413452148438	592.8792114257812	19.64484977722173	-204.7258758544922	649.9242553710938	29.85421562194831	-307.2120666503906	443.4149780273438	950.4086303710939	-467.8157043457029	581.8622436523438	671.9149169921876	-476.986358642578	524.7752075195312	685.8261108398439	-485.3925170898436	525.481689453125	580.5674438476564	-466.7521057128905	589.2070922851562	590.6159057617189	-464.7909851074218	421.4634704589844	369.3150634765626	-457.8021240234374	369.2785949707031	398.6388244628907	-457.1292419433593	303.2457275390625	344.0642089843751	-437.8893737792968	349.5652465820312	299.5448303222657	-434.5640258789062	147.1094360351562	261.1672363281251	-358.3951721191406	210.8429260253906	100.4131546020509	-433.154541015625	250.8446960449219	80.81483459472663	-342.1234741210938	
